<?xml version="1.0" encoding="UTF-8" standalone="no"?>
<!-- Created with Inkscape (http://www.inkscape.org/) -->

<svg
   xmlns:dc="http://purl.org/dc/elements/1.1/"
   xmlns:cc="http://creativecommons.org/ns#"
   xmlns:rdf="http://www.w3.org/1999/02/22-rdf-syntax-ns#"
   xmlns:svg="http://www.w3.org/2000/svg"
   xmlns="http://www.w3.org/2000/svg"
   xmlns:sodipodi="http://sodipodi.sourceforge.net/DTD/sodipodi-0.dtd"
   xmlns:inkscape="http://www.inkscape.org/namespaces/inkscape"
   id="svg2"
   version="1.1"
   inkscape:version="0.48.2 r9819"
   width="220"
   height="62"
   xml:space="preserve"
   sodipodi:docname="Onshape_logo.svg"><title
     id="title3015">Onshape corporate logo</title><metadata
     id="metadata8"><rdf:RDF><cc:Work
         rdf:about=""><dc:format>image/svg+xml</dc:format><dc:type
           rdf:resource="http://purl.org/dc/dcmitype/StillImage" /><dc:title>Onshape corporate logo</dc:title><dc:date>2015-03-04</dc:date><dc:creator><cc:Agent><dc:title>Onshape Inc.</dc:title></cc:Agent></dc:creator><dc:publisher><cc:Agent><dc:title>Onshape Inc.</dc:title></cc:Agent></dc:publisher><dc:description>Logo for Onshape Inc., converted from Adobe Illustrator format in Onshape Inc. press kit.</dc:description></cc:Work></rdf:RDF></metadata><defs
     id="defs6"><clipPath
       clipPathUnits="userSpaceOnUse"
       id="clipPath16"><path
         d="M 0,612 792,612 792,0 0,0 0,612 z"
         id="path18"
         inkscape:connector-curvature="0" /></clipPath></defs><sodipodi:namedview
     pagecolor="#ffffff"
     bordercolor="#666666"
     borderopacity="1"
     objecttolerance="10"
     gridtolerance="10"
     guidetolerance="10"
     inkscape:pageopacity="0"
     inkscape:pageshadow="2"
     inkscape:window-width="1280"
     inkscape:window-height="945"
     id="namedview4"
     showgrid="false"
     fit-margin-top="0"
     fit-margin-left="0"
     fit-margin-right="0"
     fit-margin-bottom="0"
     inkscape:zoom="3.8863636"
     inkscape:cx="107.94152"
     inkscape:cy="31"
     inkscape:window-x="0"
     inkscape:window-y="27"
     inkscape:window-maximized="1"
     inkscape:current-layer="g10" /><g
     id="g10"
     inkscape:groupmode="layer"
     inkscape:label="onshape_logo_"
     transform="matrix(1.25,0,0,-1.25,-385.99994,417.80829)"><g
       id="g3062"><path
         d="m 324.64734,303.39615 c -3.9459,0 -5.62941,1.94662 -5.62941,10.62773 0,8.68156 1.68351,10.68017 5.62941,10.68017 3.89323,0 5.62941,-1.94662 5.62941,-10.68017 0,-8.73378 -1.73618,-10.62773 -5.62941,-10.62773 m 0,28.93659 c -10.9435,0 -15.04739,-5.78718 -15.04739,-18.30886 0,-12.52168 4.10389,-18.25642 15.04739,-18.25642 10.89083,0 14.94206,5.73474 14.94206,18.25642 0,12.52168 -4.05123,18.30886 -14.94206,18.30886"
         style="fill:#1b5faa;fill-opacity:1;fill-rule:nonzero;stroke:none"
         id="path22"
         inkscape:connector-curvature="0" /><path
         d="m 402.01186,322.59975 c -1.84196,0 -3.78857,-0.47377 -5.10365,-1.21019 l -0.0527,0 0,11.99569 -8.41824,0 0,-37.09171 8.41824,0 0,17.88843 c 1.15775,0.84175 2.63059,1.42018 3.78812,1.42018 1.05242,0 1.47352,-0.4211 1.47352,-1.47285 l 0,-17.83576 8.41778,0 0,19.36128 c 0,5.36675 -4.31455,6.94493 -8.52311,6.94493"
         style="fill:#1b5faa;fill-opacity:1;fill-rule:nonzero;stroke:none"
         id="path26"
         inkscape:connector-curvature="0" /><path
         d="m 476.47659,312.28806 -5.57742,0 c 0.10533,2.41994 0.47377,4.31389 3.0517,4.31389 2.15728,0 2.52572,-1.94662 2.52572,-3.84079 l 0,-0.4731 z m 7.52336,-1.0002 c 0,6.41895 -2.68304,11.31193 -10.10107,11.31193 -8.89155,0 -11.68059,-5.05076 -11.68059,-13.88986 0,-8.04913 3.20947,-12.94279 12.99544,-12.94279 1.78862,0 5.78741,0.316 7.78669,0.99976 l -0.31599,6.73427 c -1.4733,-0.42043 -4.26122,-0.89442 -6.10251,-0.89442 -5.15631,0 -5.63008,1.52618 -5.63008,4.36722 l 13.04811,0 0,4.31389 z"
         style="fill:#1b5faa;fill-opacity:1;fill-rule:nonzero;stroke:none"
         id="path30"
         inkscape:connector-curvature="0" /><path
         d="m 382.51485,311.02509 -5.36675,2.52504 c -0.78909,0.36866 -1.26219,0.5791 -1.26219,1.31553 0,0.78909 0.57843,1.05242 2.57771,1.05242 0.68443,0 4.20923,-0.10534 6.36651,-0.47377 l 0.31509,6.6816 c -2.1566,0.36844 -5.47141,0.47377 -6.89226,0.47377 -6.36584,0 -10.94283,-2.10461 -10.94283,-7.8918 0,-3.94612 2.15728,-6.31384 4.84032,-7.47092 l 4.84032,-2.15705 c 0.94686,-0.42133 1.36752,-0.84176 1.36752,-1.36819 0,-0.84176 -0.52352,-0.80478 -2.41747,-0.80478 -1.42265,0 -4.35759,0 -7.21588,-0.002 l 0,0.002 -4.41497,0 0,12.74781 c 0,5.36675 -4.31388,6.94493 -8.52311,6.94493 -2.73571,0 -5.20876,-0.94686 -6.89227,-2.15728 l -0.0527,0 -0.4731,1.63085 -6.15584,0 0,-25.77978 8.41778,0 0,17.88843 c 1.15753,0.84175 2.63105,1.42018 3.78857,1.42018 1.05175,0 1.47285,-0.4211 1.47285,-1.47285 l 0,-17.83576 6.27843,0 17.66948,-0.0119 c 4.14581,0.73934 6.98931,3.04923 6.98931,7.79857 0,3.63012 -1.84151,5.7874 -4.31456,6.94493"
         style="fill:#1b5faa;fill-opacity:1;fill-rule:nonzero;stroke:none"
         id="path34"
         inkscape:connector-curvature="0" /><path
         d="m 448.53796,302.67862 c -0.73351,-0.0645 -1.84128,-0.007 -2.4726,0.20349 l 0,11.77315 c 0.68398,0.52599 1.84151,1.05242 3.15703,1.05242 1.99928,0 2.99836,-1.15775 2.99836,-6.62916 0,-4.41967 -0.91526,-6.15652 -3.68279,-6.3999 m -23.30785,0.45472 c -0.63109,-0.57865 -1.84129,-0.94709 -2.63038,-0.94709 -1.57885,0 -2.31527,0.84176 -2.31527,2.52527 0,0.2631 0.0527,1.05219 0.52598,1.52596 0.73687,0.73643 2.42039,0.78909 4.41967,0.78909 l 0,-3.89323 z m 26.35955,19.46661 c -2.36727,0 -5.26097,-0.52643 -7.26026,-2.15728 l -0.0527,0 -0.47377,1.63085 -6.15539,0 0,-19.16989 -4.20968,0 0,12.64606 c 0,5.26142 -4.84032,7.05026 -10.46973,7.05026 -2.26306,0 -5.99785,-0.31599 -9.10266,-1.05242 l 0.31577,-6.78693 c 3.52547,0.73642 7.15604,0.99952 8.41845,0.99952 1.63063,0 2.52572,-0.4211 2.52572,-1.94661 l 0,-1.42018 c -3.89346,0 -8.94489,-0.52644 -11.1015,-2.68372 -1.52618,-1.52551 -2.05262,-3.63013 -2.05262,-5.62941 0,-5.36675 3.57926,-7.87499 8.10269,-7.96598 1.31126,-0.0258 3.66173,0.0419 6.12402,0.18064 l 11.44954,-0.002 0,-10.78438 8.41778,0 0,10.57506 c 1.05174,-0.15799 2.68326,-0.21066 3.73546,-0.21066 7.62936,0 11.15416,4.47188 11.15416,13.5741 0,7.1027 -1.84151,13.15344 -9.36532,13.15344"
         style="fill:#1b5faa;fill-opacity:1;fill-rule:nonzero;stroke:none"
         id="path38"
         inkscape:connector-curvature="0" /></g></g></svg>