<?xml version="1.0" encoding="iso-8859-1"?>
<!-- Generator: Adobe Illustrator 19.0.0, SVG Export Plug-In . SVG Version: 6.00 Build 0)  -->
<svg fill="#fefff5" version="1.1" id="Layer_1" xmlns="http://www.w3.org/2000/svg" xmlns:xlink="http://www.w3.org/1999/xlink" x="0px" y="0px"
	 viewBox="0 0 511.994 511.994" style="enable-background:new 0 0 511.994 511.994;" xml:space="preserve">
<g>
	<g>
		<path d="M403.079,310.458c-3.627-7.232-11.008-11.797-19.093-11.797h-64v-85.333c0-11.776-9.536-21.333-21.333-21.333H213.32
			c-11.776,0-21.333,9.557-21.333,21.333v85.333h-64c-8.064,0-15.445,4.565-19.072,11.797c-3.605,7.232-2.837,15.872,2.027,22.336
			l128,170.667c4.011,5.376,10.347,8.533,17.045,8.533c6.72,0,13.056-3.157,17.067-8.533l128-170.667
			C405.917,326.33,406.685,317.69,403.079,310.458z"/>
	</g>
</g>
<g>
	<g>
		<path d="M298.663,128.001H213.33c-11.797,0-21.333,9.536-21.333,21.333c0,11.797,9.536,21.333,21.333,21.333h85.333
			c11.797,0,21.333-9.536,21.333-21.333C319.996,137.537,310.46,128.001,298.663,128.001z"/>
	</g>
</g>
<g>
	<g>
		<path d="M298.663,64.001H213.33c-11.797,0-21.333,9.536-21.333,21.333s9.536,21.333,21.333,21.333h85.333
			c11.797,0,21.333-9.536,21.333-21.333S310.46,64.001,298.663,64.001z"/>
	</g>
</g>
<g>
	<g>
		<path d="M298.664,0H213.33c-11.797,0-21.333,9.536-21.333,21.333c0,11.798,9.536,21.334,21.333,21.334h85.333
			c11.797,0,21.333-9.536,21.333-21.333C319.997,9.536,310.461,0,298.664,0z"/>
	</g>
</g>
<g>
</g>
<g>
</g>
<g>
</g>
<g>
</g>
<g>
</g>
<g>
</g>
<g>
</g>
<g>
</g>
<g>
</g>
<g>
</g>
<g>
</g>
<g>
</g>
<g>
</g>
<g>
</g>
<g>
</g>
</svg>
